:FULLY-SPECIFIED
:DEGREES
2079
root 8.50455 16.4483 -2.56645 5740.58 -91.3594 -5725.17
lowerback -0.110824 2.78504 -1.79552
upperback 1.56267 3.73342 -1.9947
thorax 1.68261 1.84385 -0.981889
lowerneck -18.6043 1.41322 -1.04963
upperneck 32.3219 0.778954 2.7131
head 14.1448 0.348199 1.35467
rclavicle 1.11319e-014 -1.43125e-014
rhumerus -21.9731 3.24836 -84.1979
rradius 48.4904
rwrist 14.0678
rhand -28.4921 -12.7065
rfingers 7.12502
rthumb -1.86123 -42.6781
lclavicle 1.11319e-014 -1.43125e-014
lhumerus -37.1241 3.0158 82.4621
lradius 24.0006
lwrist 0.510131
lhand -22.3164 6.69525
lfingers 7.12502
lthumb 4.10325 36.6355
rfemur -3.878 3.14621 23.1819
rtibia 31.7548
rfoot -7.8465 0.0581588
rtoes -27.0845
lfemur -44.7452 1.98301 -20.7033
ltibia 26.5871
lfoot -1.27796 4.51513
ltoes -12.8016
2080
root 8.48882 16.4384 -2.5466 5741.62 -91.1109 -5726.39
lowerback 0.0200155 2.68142 -2.02046
upperback 1.69435 3.59363 -2.06968
thorax 1.73495 1.76895 -0.93877
lowerneck -18.674 1.41635 -1.14378
upperneck 32.26 0.783265 2.82886
head 14.131 0.356837 1.41863
rclavicle -7.55382e-014 5.725e-014
rhumerus -22.3473 2.74321 -84.5377
rradius 48.6551
rwrist 13.8498
rhand -28.5243 -12.7508
rfingers 7.12502
rthumb -1.8923 -42.7222
lclavicle -7.55382e-014 5.725e-014
lhumerus -36.9186 2.72606 82.4495
lradius 23.8204
lwrist 0.408301
lhand -22.198 6.63057
lfingers 7.12502
lthumb 4.21757 36.5686
rfemur -5.09915 1.96208 22.7788
rtibia 35.2677
rfoot -5.58142 1.06252
rtoes -26.0589
lfemur -44.7874 2.30104 -21.1725
ltibia 28.6189
lfoot -1.47406 3.83248
ltoes -13.8023
2081
root 8.47596 16.4291 -2.52433 5738.5 -90.9886 -5723.55
lowerback 0.163306 2.61057 -2.01674
upperback 1.88174 3.49643 -2.13247
thorax 1.8511 1.71809 -1.00838
lowerneck -18.7953 1.43255 -1.1669
upperneck 32.2738 0.836322 2.78149
head 14.1626 0.371387 1.41457
rclavicle -2.14687e-014 3.18055e-015
rhumerus -22.6758 2.26701 -84.8915
rradius 48.5316
rwrist 14.1834
rhand -28.9415 -12.832
rfingers 7.12502
rthumb -2.29518 -42.7994
lclavicle -2.14687e-014 3.18055e-015
lhumerus -36.6021 2.40662 82.4415
lradius 23.5994
lwrist 0.117764
lhand -22.1246 6.59174
lfingers 7.12502
lthumb 4.28848 36.5283
rfemur -6.42798 0.724114 22.4499
rtibia 38.8883
rfoot -2.70585 1.83763
rtoes -24.3503
lfemur -44.6921 2.51654 -21.448
ltibia 30.4949
lfoot -2.01247 2.48496
ltoes -12.0648
2082
root 8.46242 16.423 -2.4958 5733.73 -90.8907 -5719.06
lowerback 0.322772 2.51889 -1.94001
upperback 2.01906 3.3696 -2.14875
thorax 1.90762 1.65447 -1.07339
lowerneck -18.9095 1.4993 -1.1769
upperneck 32.4447 0.975452 2.65139
head 14.2608 0.408283 1.3917
rclavicle 4.85035e-014 1.27222e-014
rhumerus -23.0412 1.95538 -85.2244
rradius 48.3409
rwrist 14.1276
rhand -29.2757 -13.0455
rfingers 7.12502
rthumb -2.61798 -43.0092
lclavicle 4.85035e-014 1.27222e-014
lhumerus -36.3685 2.15217 82.479
lradius 23.4302
lwrist -0.120655
lhand -22.0298 6.54186
lfingers 7.12502
lthumb 4.38004 36.4766
rfemur -7.79565 -0.409976 22.0975
rtibia 42.4787
rfoot 0.513231 2.07999
rtoes -21.1615
lfemur -44.3738 2.44746 -21.5719
ltibia 32.1037
lfoot -2.77238 1.81763
ltoes -10.5462
2083
root 8.44877 16.4168 -2.4643 5737.54 -90.8737 -5723.12
lowerback 0.39462 2.41937 -2.00227
upperback 2.11533 3.23552 -2.10693
thorax 1.95963 1.58484 -0.998546
lowerneck -18.8893 1.63262 -1.22592
upperneck 32.6312 1.26066 2.40758
head 14.3332 0.483686 1.35283
rclavicle -3.10104e-014 4.21423e-014
rhumerus -23.4476 2.0173 -85.5031
rradius 48.1114
rwrist 13.6906
rhand -29.4441 -12.9019
rfingers 7.12502
rthumb -2.78063 -42.8636
lclavicle -3.10104e-014 4.21423e-014
lhumerus -36.2131 2.01967 82.6024
lradius 23.341
lwrist -0.349022
lhand -21.9642 6.51756
lfingers 7.12502
lthumb 4.44333 36.451
rfemur -9.18029 -1.33457 21.6427
rtibia 46.0469
rfoot 2.99661 2.16175
rtoes -21.3694
lfemur -43.8175 2.33616 -21.7191
ltibia 33.338
lfoot -3.50367 1.91476
ltoes -10.8393
2084
root 8.43911 16.4202 -2.43237 5743.35 -90.915 -5729.08
lowerback 0.36705 2.34771 -1.99183
upperback 2.13164 3.14125 -2.11489
thorax 1.9925 1.53764 -1.01203
lowerneck -18.741 1.77508 -1.16975
upperneck 32.8265 1.51688 2.15876
head 14.3845 0.556483 1.28635
rclavicle 1.59028e-015 -2.22639e-014
rhumerus -23.8808 2.0342 -85.8261
rradius 47.7722
rwrist 13.4678
rhand -29.3221 -12.9029
rfingers 7.12502
rthumb -2.66278 -42.866
lclavicle 1.59028e-015 -2.22639e-014
lhumerus -36.1203 1.68491 82.7169
lradius 23.371
lwrist -0.462514
lhand -21.7675 6.55713
lfingers 7.12502
lthumb 4.6333 36.4865
rfemur -10.7654 -2.01617 21.2425
rtibia 49.5189
rfoot 4.59903 2.39879
rtoes -20.4831
lfemur -43.1736 2.33562 -21.8858
ltibia 34.1846
lfoot -4.2995 1.71125
ltoes -9.64573
2085
root 8.4255 16.4443 -2.39966 5758.84 -91.0181 -5744.65
lowerback 0.184933 2.23366 -2.17846
upperback 2.18705 2.99832 -2.12082
thorax 2.14211 1.46112 -0.907228
lowerneck -18.7606 1.9599 -1.12703
upperneck 33.0879 1.872 1.83065
head 14.5037 0.657557 1.21014
rclavicle -3.49861e-014 4.29375e-014
rhumerus -24.0777 2.29547 -86.1355
rradius 47.3135
rwrist 13.1904
rhand -29.0383 -12.7802
rfingers 7.12502
rthumb -2.38872 -42.7466
lclavicle -3.49861e-014 4.29375e-014
lhumerus -35.9048 1.44534 82.8972
lradius 23.4434
lwrist -0.4559
lhand -21.6745 6.6141
lfingers 7.12502
lthumb 4.72311 36.5414
rfemur -12.4571 -2.39875 20.7174
rtibia 52.8824
rfoot 5.45617 2.80503
rtoes -17.6304
lfemur -42.2979 2.18753 -22.1728
ltibia 34.6431
lfoot -5.04966 1.77761
ltoes -8.72621
